<svg width="18" height="19" viewBox="0 0 18 19" fill="none" xmlns="http://www.w3.org/2000/svg">
<path d="M12.5926 1.81476H5.18515C3.13965 1.81476 1.48145 3.47296 1.48145 5.51846V12.9259C1.48145 14.9714 3.13965 16.6296 5.18515 16.6296H12.5926C14.6381 16.6296 16.2963 14.9714 16.2963 12.9259V5.51846C16.2963 3.47296 14.6381 1.81476 12.5926 1.81476Z" stroke="#FF4DA3" stroke-linecap="round" stroke-linejoin="round"/>
<path d="M11.8519 8.75552C11.9433 9.372 11.838 10.0016 11.551 10.5548C11.2639 11.108 10.8098 11.5566 10.2531 11.8368C9.69641 12.117 9.06555 12.2145 8.45025 12.1155C7.83494 12.0165 7.26653 11.726 6.82584 11.2853C6.38516 10.8446 6.09465 10.2762 5.99564 9.66086C5.89663 9.04556 5.99416 8.4147 6.27435 7.85802C6.55455 7.30134 7.00314 6.84718 7.55632 6.56014C8.10951 6.27311 8.73911 6.16781 9.35559 6.25922C9.98442 6.35247 10.5666 6.64549 11.0161 7.09501C11.4656 7.54452 11.7586 8.12669 11.8519 8.75552Z" stroke="#FF4DA3" stroke-linecap="round" stroke-linejoin="round"/>
<path d="M12.963 5.14807H12.9709" stroke="#FF4DA3" stroke-width="1.48148" stroke-linecap="round" stroke-linejoin="round"/>
</svg>
