<svg width="18" height="19" viewBox="0 0 18 19" fill="none" xmlns="http://www.w3.org/2000/svg">
<g clip-path="url(#clip0_116_181)">
<path d="M17.2592 2.55554C16.5498 3.0559 15.7645 3.43859 14.9333 3.68888C14.4871 3.17592 13.8942 2.81235 13.2348 2.64734C12.5753 2.48233 11.881 2.52384 11.2459 2.76625C10.6108 3.00866 10.0654 3.44029 9.68362 4.00274C9.3018 4.5652 9.10193 5.23135 9.11104 5.9111V6.65184C7.80929 6.68559 6.51939 6.39689 5.35623 5.81143C4.19307 5.22597 3.19276 4.36194 2.44437 3.29629C2.44437 3.29629 -0.518591 9.96295 6.14808 12.9259C4.62254 13.9614 2.80523 14.4807 0.962891 14.4074C7.62956 18.1111 15.7777 14.4074 15.7777 5.88888C15.777 5.68255 15.7572 5.47673 15.7184 5.27406C16.4744 4.5285 17.0079 3.58718 17.2592 2.55554Z" stroke="#FF4DA3" stroke-linecap="round" stroke-linejoin="round"/>
</g>
<defs>
<clipPath id="clip0_116_181">
<rect width="17.7778" height="17.7778" fill="white" transform="translate(0.222168 0.333313)"/>
</clipPath>
</defs>
</svg>
